<svg width="351" height="92" viewBox="0 0 351 92" fill="none" xmlns="http://www.w3.org/2000/svg">
<path d="M7.68414 44.6702C2.88155 29.8894 7.82516 18.4783 20.8671 14.2407C33.909 10.0032 44.6157 16.3291 49.4183 31.11C54.2209 45.8908 47.6294 61.1055 41.9985 79.2764C26.7623 67.8856 12.4867 59.451 7.68414 44.6702Z" fill="white"/>
<path d="M35.6348 28.8944C38.495 10.8354 51.0466 1.71616 69.1056 4.57642C87.1646 7.43669 96.2838 19.9882 93.4236 38.0472C90.5633 56.1062 73.8279 68.2652 56.5204 84.036C44.9335 63.6888 32.7745 46.9534 35.6348 28.8944Z" fill="white"/>
<path d="M7.68414 44.6702C2.88155 29.8894 7.82516 18.4783 20.8671 14.2407C33.909 10.0032 44.6157 16.3291 49.4183 31.11C54.2209 45.8908 47.6294 61.1055 41.9985 79.2764C26.7623 67.8856 12.4867 59.451 7.68414 44.6702Z" fill="#0066FF" fill-opacity="0.5"/>
<path d="M35.6348 28.8944C38.495 10.8354 51.0466 1.71616 69.1056 4.57642C87.1646 7.43669 96.2838 19.9882 93.4236 38.0472C90.5633 56.1062 73.8279 68.2652 56.5204 84.036C44.9335 63.6888 32.7745 46.9534 35.6348 28.8944Z" fill="#CB00FF" fill-opacity="0.5"/>
<path d="M109.39 19.2613H118.962V50.056H121.337L133.58 35.5862H146.047L129.648 53.9888L146.121 72.6883H133.655L121.263 57.9959H118.962V72.6883H109.39V19.2613ZM148.596 35.5862H157.204L157.872 40.3353C158.911 39.049 160.073 38.0102 161.36 37.2187C162.695 36.3777 164.155 35.8088 165.738 35.512C167.321 35.1657 168.978 35.1904 170.709 35.5862V44.4907C169.374 44.0455 167.964 43.9218 166.48 44.1197C165.045 44.3175 163.685 44.837 162.398 45.678C161.162 46.5189 160.123 47.7309 159.282 49.314C158.49 50.8475 158.095 52.8016 158.095 55.1761V72.6883H148.596V35.5862ZM206.393 72.6883H197.711L197.043 68.8297C195.856 70.2148 194.396 71.3031 192.665 72.0947C190.983 72.8367 189.177 73.2077 187.248 73.2077C184.379 73.2077 181.905 72.5894 179.828 71.3526C177.75 70.1159 176.142 68.335 175.004 66.0099C173.867 63.6354 173.298 60.7167 173.298 57.2538V35.5862H182.87V56.0665C182.87 58.8863 183.414 61.0382 184.503 62.5223C185.64 63.9569 187.372 64.6742 189.697 64.6742C191.972 64.6742 193.729 63.9322 194.965 62.4481C196.252 60.964 196.895 58.8121 196.895 55.9923V35.5862H206.393V72.6883Z" fill="#80B3FF"/>
<path d="M213.778 35.5862H223.276V72.6883H213.778V35.5862ZM218.601 30.8371C216.82 30.8371 215.361 30.2929 214.223 29.2046C213.085 28.0668 212.516 26.6817 212.516 25.0492C212.516 23.4167 213.085 22.0563 214.223 20.9679C215.361 19.8301 216.82 19.2613 218.601 19.2613C220.283 19.2613 221.693 19.8301 222.831 20.9679C224.018 22.0563 224.612 23.4167 224.612 25.0492C224.612 26.6817 224.018 28.0668 222.831 29.2046C221.693 30.2929 220.283 30.8371 218.601 30.8371ZM233.379 35.5862V25.1976H243.026V35.5862H251.188V43.9713H243.026V59.0347C243.026 60.964 243.422 62.3244 244.213 63.1159C245.054 63.9075 246.093 64.328 247.33 64.3774C248.616 64.4269 249.902 64.3527 251.188 64.1548V72.3173C248.913 72.812 246.687 72.9604 244.51 72.7625C242.383 72.5646 240.478 71.9957 238.796 71.0558C237.114 70.0664 235.779 68.5823 234.789 66.6035C233.849 64.6248 233.379 62.1018 233.379 59.0347V43.9713H228.111V35.5862H233.379ZM271.831 73.2077C268.121 73.2077 264.856 72.3915 262.036 70.759C259.216 69.1265 257.015 66.8509 255.432 63.9322C253.898 61.0135 253.132 57.6496 253.132 53.8404C253.132 50.1797 253.898 46.9394 255.432 44.1197C256.965 41.2999 259.093 39.0985 261.813 37.5155C264.584 35.883 267.725 35.0667 271.237 35.0667C274.799 35.0667 277.941 35.8335 280.661 37.3671C283.382 38.9006 285.485 41.0526 286.969 43.8228C288.502 46.5437 289.269 49.7345 289.269 53.3952C289.269 53.9394 289.22 54.5577 289.121 55.2503C289.071 55.8934 288.997 56.586 288.898 57.328H263.372C263.57 58.911 264.064 60.2715 264.856 61.4093C265.697 62.4976 266.711 63.3633 267.898 64.0064C269.135 64.6 270.52 64.8968 272.054 64.8968C273.884 64.8968 275.517 64.5258 276.951 63.7838C278.435 62.9923 279.499 61.9781 280.142 60.7414L288.601 63.2644C287.117 66.4304 284.891 68.8791 281.923 70.6106C279.004 72.342 275.64 73.2077 271.831 73.2077ZM278.88 50.427C278.831 49.0419 278.46 47.8051 277.767 46.7168C277.075 45.579 276.16 44.7133 275.022 44.1197C273.884 43.4766 272.623 43.155 271.237 43.155C270.001 43.155 268.838 43.4766 267.75 44.1197C266.662 44.7628 265.722 45.6285 264.93 46.7168C264.188 47.7557 263.693 48.9924 263.446 50.427H278.88ZM293.541 35.5862H302.149L302.817 40.3353C303.855 39.049 305.018 38.0102 306.304 37.2187C307.64 36.3777 309.099 35.8088 310.682 35.512C312.265 35.1657 313.922 35.1904 315.654 35.5862V44.4907C314.318 44.0455 312.908 43.9218 311.424 44.1197C309.99 44.3175 308.629 44.837 307.343 45.678C306.106 46.5189 305.067 47.7309 304.226 49.314C303.435 50.8475 303.039 52.8016 303.039 55.1761V72.6883H293.541V35.5862ZM325.44 60.593C325.737 61.8297 326.232 62.7697 326.924 63.4128C327.666 64.0559 328.483 64.5258 329.373 64.8226C330.313 65.07 331.253 65.1937 332.193 65.1937C333.924 65.1937 335.285 64.8721 336.274 64.229C337.263 63.5364 337.758 62.6707 337.758 61.6319C337.758 60.7414 337.412 60.0488 336.719 59.5541C336.027 59.01 335.136 58.6142 334.048 58.3669C332.96 58.0701 331.846 57.7732 330.709 57.4764C329.373 57.1301 327.938 56.7591 326.405 56.3634C324.921 55.9181 323.511 55.2998 322.175 54.5083C320.839 53.7167 319.726 52.7026 318.836 51.4659C317.946 50.1797 317.5 48.5719 317.5 46.6426C317.5 44.367 318.119 42.3635 319.355 40.6321C320.642 38.9006 322.398 37.5402 324.624 36.5508C326.899 35.5614 329.521 35.0667 332.49 35.0667C336.002 35.0667 338.97 35.8088 341.394 37.2929C343.818 38.777 345.574 40.9041 346.663 43.6744L338.277 46.049C338.03 45.3564 337.61 44.7875 337.016 44.3423C336.422 43.8971 335.705 43.5755 334.864 43.3776C334.073 43.1797 333.256 43.0808 332.415 43.0808C330.981 43.0808 329.793 43.3776 328.854 43.9713C327.914 44.5154 327.444 45.2822 327.444 46.2716C327.444 46.8652 327.617 47.3599 327.963 47.7557C328.309 48.102 328.779 48.3988 329.373 48.6461C330.016 48.8935 330.733 49.1161 331.525 49.314C332.366 49.5118 333.281 49.7345 334.27 49.9818C335.804 50.3776 337.338 50.8475 338.871 51.3917C340.454 51.8864 341.889 52.5295 343.175 53.321C344.511 54.1125 345.574 55.1761 346.366 56.5118C347.157 57.8474 347.602 59.5294 347.701 61.5577C347.701 63.7343 347.083 65.7131 345.846 67.494C344.61 69.2254 342.829 70.6106 340.504 71.6494C338.179 72.6883 335.359 73.2077 332.044 73.2077C328.186 73.2077 324.896 72.3915 322.175 70.759C319.504 69.1265 317.748 66.5788 316.907 63.1159L325.44 60.593Z" fill="#E580FF"/>
</svg>
