<svg width="351" height="90" viewBox="0 0 351 90" fill="none" xmlns="http://www.w3.org/2000/svg">
<path d="M8.24025 43.8184C3.53028 29.3711 8.37855 18.2175 21.169 14.0755C33.9594 9.9335 44.4596 16.1167 49.1696 30.5641C53.8795 45.0115 47.4152 59.8829 41.8928 77.6439C26.9505 66.5101 12.9502 58.2658 8.24025 43.8184Z" fill="white"/>
<path d="M35.6518 28.3985C38.4569 10.7469 50.7664 1.83345 68.4772 4.62918C86.1879 7.42491 95.1313 19.6933 92.3262 37.3449C89.5211 54.9964 73.1084 66.8811 56.1347 82.2961C44.7712 62.4079 32.8467 46.0501 35.6518 28.3985Z" fill="white"/>
<path d="M8.24025 43.8184C3.53028 29.3711 8.37855 18.2175 21.169 14.0755C33.9594 9.9335 44.4596 16.1167 49.1696 30.5641C53.8795 45.0115 47.4152 59.8829 41.8928 77.6439C26.9505 66.5101 12.9502 58.2658 8.24025 43.8184Z" fill="#0066FF" fill-opacity="0.5" stroke="#223044" stroke-width="2.85864"/>
<path d="M35.6518 28.3985C38.4569 10.7469 50.7664 1.83345 68.4772 4.62918C86.1879 7.42491 95.1313 19.6933 92.3262 37.3449C89.5211 54.9964 73.1084 66.8811 56.1347 82.2961C44.7712 62.4079 32.8467 46.0501 35.6518 28.3985Z" fill="#CB00FF" fill-opacity="0.5" stroke="#3D2244" stroke-width="3.58029"/>
<path d="M109.094 17.4172H118.667V48.2119H121.041L133.285 33.7421H145.751L129.352 52.1448L145.825 70.8442H133.359L120.967 56.1518H118.667V70.8442H109.094V17.4172ZM148.301 33.7421H156.908L157.576 38.4912C158.615 37.205 159.778 36.1661 161.064 35.3746C162.4 34.5336 163.859 33.9647 165.442 33.6679C167.025 33.3216 168.682 33.3464 170.414 33.7421V42.6466C169.078 42.2014 167.668 42.0777 166.184 42.2756C164.749 42.4735 163.389 42.9929 162.103 43.8339C160.866 44.6749 159.827 45.8869 158.986 47.4699C158.195 49.0035 157.799 50.9575 157.799 53.332V70.8442H148.301V33.7421ZM206.097 70.8442H197.415L196.747 66.9856C195.56 68.3708 194.101 69.4591 192.369 70.2506C190.687 70.9926 188.882 71.3637 186.952 71.3637C184.083 71.3637 181.61 70.7453 179.532 69.5086C177.454 68.2718 175.847 66.4909 174.709 64.1659C173.571 61.7913 173.002 58.8726 173.002 55.4098V33.7421H182.574V54.2225C182.574 57.0423 183.119 59.1942 184.207 60.6783C185.345 62.1129 187.076 62.8302 189.401 62.8302C191.677 62.8302 193.433 62.0881 194.67 60.6041C195.956 59.12 196.599 56.968 196.599 54.1483V33.7421H206.097V70.8442Z" fill="#223044"/>
<path d="M213.482 33.7421H222.98V70.8442H213.482V33.7421ZM218.305 28.9931C216.525 28.9931 215.065 28.4489 213.927 27.3606C212.79 26.2228 212.221 24.8376 212.221 23.2051C212.221 21.5726 212.79 20.2122 213.927 19.1239C215.065 17.9861 216.525 17.4172 218.305 17.4172C219.987 17.4172 221.397 17.9861 222.535 19.1239C223.722 20.2122 224.316 21.5726 224.316 23.2051C224.316 24.8376 223.722 26.2228 222.535 27.3606C221.397 28.4489 219.987 28.9931 218.305 28.9931ZM233.084 33.7421V23.3535H242.73V33.7421H250.893V42.1272H242.73V57.1907C242.73 59.12 243.126 60.4804 243.917 61.2719C244.758 62.0634 245.797 62.4839 247.034 62.5334C248.32 62.5828 249.606 62.5086 250.893 62.3108V70.4732C248.617 70.9679 246.391 71.1163 244.214 70.9184C242.087 70.7206 240.183 70.1517 238.501 69.2117C236.819 68.2224 235.483 66.7383 234.494 64.7595C233.554 62.7807 233.084 60.2578 233.084 57.1907V42.1272H227.815V33.7421H233.084ZM271.535 71.3637C267.825 71.3637 264.56 70.5474 261.74 68.9149C258.921 67.2824 256.719 65.0068 255.136 62.0881C253.603 59.1694 252.836 55.8055 252.836 51.9964C252.836 48.3356 253.603 45.0954 255.136 42.2756C256.67 39.4558 258.797 37.2545 261.518 35.6714C264.288 34.0389 267.429 33.2227 270.942 33.2227C274.504 33.2227 277.645 33.9895 280.366 35.523C283.087 37.0566 285.189 39.2085 286.673 41.9788C288.207 44.6996 288.973 47.8904 288.973 51.5511C288.973 52.0953 288.924 52.7137 288.825 53.4062C288.775 54.0493 288.701 54.7419 288.602 55.484H263.076C263.274 57.067 263.769 58.4274 264.56 59.5652C265.401 60.6535 266.415 61.5192 267.603 62.1623C268.839 62.756 270.224 63.0528 271.758 63.0528C273.588 63.0528 275.221 62.6818 276.655 61.9397C278.14 61.1482 279.203 60.1341 279.846 58.8974L288.306 61.4203C286.821 64.5863 284.595 67.0351 281.627 68.7665C278.708 70.498 275.345 71.3637 271.535 71.3637ZM278.585 48.583C278.535 47.1978 278.164 45.9611 277.472 44.8728C276.779 43.735 275.864 42.8692 274.726 42.2756C273.588 41.6325 272.327 41.311 270.942 41.311C269.705 41.311 268.542 41.6325 267.454 42.2756C266.366 42.9187 265.426 43.7844 264.634 44.8728C263.892 45.9116 263.398 47.1484 263.15 48.583H278.585ZM293.245 33.7421H301.853L302.521 38.4912C303.56 37.205 304.722 36.1661 306.008 35.3746C307.344 34.5336 308.803 33.9647 310.387 33.6679C311.97 33.3216 313.627 33.3464 315.358 33.7421V42.6466C314.023 42.2014 312.613 42.0777 311.129 42.2756C309.694 42.4735 308.334 42.9929 307.047 43.8339C305.811 44.6749 304.772 45.8869 303.931 47.4699C303.139 49.0035 302.743 50.9575 302.743 53.332V70.8442H293.245V33.7421ZM325.144 58.7489C325.441 59.9857 325.936 60.9256 326.629 61.5687C327.371 62.2118 328.187 62.6818 329.077 62.9786C330.017 63.2259 330.957 63.3496 331.897 63.3496C333.628 63.3496 334.989 63.0281 335.978 62.385C336.968 61.6924 337.462 60.8267 337.462 59.7878C337.462 58.8974 337.116 58.2048 336.424 57.7101C335.731 57.1659 334.84 56.7702 333.752 56.5228C332.664 56.226 331.551 55.9292 330.413 55.6324C329.077 55.2861 327.643 54.9151 326.109 54.5193C324.625 54.0741 323.215 53.4557 321.879 52.6642C320.544 51.8727 319.431 50.8586 318.54 49.6218C317.65 48.3356 317.205 46.7279 317.205 44.7986C317.205 42.523 317.823 40.5194 319.06 38.788C320.346 37.0566 322.102 35.6962 324.328 34.7068C326.604 33.7174 329.226 33.2227 332.194 33.2227C335.706 33.2227 338.674 33.9647 341.098 35.4488C343.522 36.9329 345.279 39.0601 346.367 41.8304L337.982 44.2049C337.734 43.5123 337.314 42.9434 336.72 42.4982C336.127 42.053 335.409 41.7314 334.568 41.5336C333.777 41.3357 332.961 41.2368 332.12 41.2368C330.685 41.2368 329.498 41.5336 328.558 42.1272C327.618 42.6714 327.148 43.4381 327.148 44.4275C327.148 45.0212 327.321 45.5159 327.667 45.9116C328.014 46.2579 328.484 46.5547 329.077 46.8021C329.72 47.0494 330.438 47.272 331.229 47.4699C332.07 47.6678 332.985 47.8904 333.975 48.1377C335.508 48.5335 337.042 49.0035 338.575 49.5476C340.158 50.0423 341.593 50.6854 342.879 51.4769C344.215 52.2684 345.279 53.332 346.07 54.6677C346.862 56.0034 347.307 57.6854 347.406 59.7136C347.406 61.8903 346.787 63.869 345.551 65.6499C344.314 67.3814 342.533 68.7665 340.208 69.8054C337.883 70.8442 335.063 71.3637 331.749 71.3637C327.89 71.3637 324.6 70.5474 321.879 68.9149C319.208 67.2824 317.452 64.7348 316.611 61.2719L325.144 58.7489Z" fill="#3D2244"/>
<ellipse cx="218.299" cy="24.2795" rx="8.16904" ry="8.10099" fill="#A559FF"/>
</svg>
