<svg width="350" height="90" viewBox="0 0 350 90" fill="none" xmlns="http://www.w3.org/2000/svg">
<path d="M7.53595 43.6624C2.82598 29.215 7.67425 18.0614 20.4647 13.9195C33.2551 9.77749 43.7553 15.9607 48.4653 30.4081C53.1752 44.8555 46.7109 59.7269 41.1885 77.4879C26.2462 66.3541 12.2459 58.1098 7.53595 43.6624Z" fill="white"/>
<path d="M34.9475 28.2425C37.7526 10.5909 50.0621 1.67744 67.7728 4.47317C85.4836 7.26891 94.427 19.5373 91.6218 37.1889C88.8167 54.8404 72.4041 66.7251 55.4304 82.1401C44.0669 62.2519 32.1424 45.8941 34.9475 28.2425Z" fill="white"/>
<path d="M7.53595 43.6624C2.82598 29.215 7.67425 18.0614 20.4647 13.9195C33.2551 9.77749 43.7553 15.9607 48.4653 30.4081C53.1752 44.8555 46.7109 59.7269 41.1885 77.4879C26.2462 66.3541 12.2459 58.1098 7.53595 43.6624Z" fill="#0066FF" fill-opacity="0.5" stroke="#80B3FF" stroke-width="2.85864"/>
<path d="M34.9475 28.2425C37.7526 10.5909 50.0621 1.67744 67.7728 4.47317C85.4836 7.26891 94.427 19.5373 91.6218 37.1889C88.8167 54.8404 72.4041 66.7251 55.4304 82.1401C44.0669 62.2519 32.1424 45.8941 34.9475 28.2425Z" fill="#CB00FF" fill-opacity="0.5" stroke="#E580FF" stroke-width="3.58029"/>
<path d="M108.39 17.2613H117.962V48.056H120.337L132.58 33.5862H145.047L128.648 51.9888L145.121 70.6883H132.655L120.263 55.9959H117.962V70.6883H108.39V17.2613ZM147.596 33.5862H156.204L156.872 38.3353C157.911 37.049 159.073 36.0102 160.36 35.2187C161.695 34.3777 163.155 33.8088 164.738 33.512C166.321 33.1657 167.978 33.1904 169.709 33.5862V42.4907C168.374 42.0455 166.964 41.9218 165.48 42.1197C164.045 42.3175 162.685 42.837 161.398 43.678C160.162 44.5189 159.123 45.7309 158.282 47.314C157.49 48.8475 157.095 50.8016 157.095 53.1761V70.6883H147.596V33.5862ZM205.393 70.6883H196.711L196.043 66.8297C194.856 68.2148 193.396 69.3031 191.665 70.0947C189.983 70.8367 188.177 71.2077 186.248 71.2077C183.379 71.2077 180.905 70.5894 178.828 69.3526C176.75 68.1159 175.142 66.335 174.004 64.0099C172.867 61.6354 172.298 58.7167 172.298 55.2538V33.5862H181.87V54.0665C181.87 56.8863 182.414 59.0382 183.503 60.5223C184.64 61.9569 186.372 62.6742 188.697 62.6742C190.972 62.6742 192.729 61.9322 193.965 60.4481C195.252 58.964 195.895 56.8121 195.895 53.9923V33.5862H205.393V70.6883Z" fill="#80B3FF"/>
<path d="M212.778 33.5862H222.276V70.6883H212.778V33.5862ZM217.601 28.8371C215.82 28.8371 214.361 28.2929 213.223 27.2046C212.085 26.0668 211.516 24.6817 211.516 23.0492C211.516 21.4167 212.085 20.0563 213.223 18.9679C214.361 17.8301 215.82 17.2613 217.601 17.2613C219.283 17.2613 220.693 17.8301 221.831 18.9679C223.018 20.0563 223.612 21.4167 223.612 23.0492C223.612 24.6817 223.018 26.0668 221.831 27.2046C220.693 28.2929 219.283 28.8371 217.601 28.8371ZM232.379 33.5862V23.1976H242.026V33.5862H250.188V41.9713H242.026V57.0347C242.026 58.964 242.422 60.3244 243.213 61.1159C244.054 61.9075 245.093 62.328 246.33 62.3774C247.616 62.4269 248.902 62.3527 250.188 62.1548V70.3173C247.913 70.812 245.687 70.9604 243.51 70.7625C241.383 70.5646 239.478 69.9957 237.796 69.0558C236.114 68.0664 234.779 66.5823 233.789 64.6035C232.849 62.6248 232.379 60.1018 232.379 57.0347V41.9713H227.111V33.5862H232.379ZM270.831 71.2077C267.121 71.2077 263.856 70.3915 261.036 68.759C258.216 67.1265 256.015 64.8509 254.432 61.9322C252.898 59.0135 252.132 55.6496 252.132 51.8404C252.132 48.1797 252.898 44.9394 254.432 42.1197C255.965 39.2999 258.093 37.0985 260.813 35.5155C263.584 33.883 266.725 33.0667 270.237 33.0667C273.799 33.0667 276.941 33.8335 279.661 35.3671C282.382 36.9006 284.485 39.0526 285.969 41.8228C287.502 44.5437 288.269 47.7345 288.269 51.3952C288.269 51.9394 288.22 52.5577 288.121 53.2503C288.071 53.8934 287.997 54.586 287.898 55.328H262.372C262.57 56.911 263.064 58.2715 263.856 59.4093C264.697 60.4976 265.711 61.3633 266.898 62.0064C268.135 62.6 269.52 62.8968 271.054 62.8968C272.884 62.8968 274.517 62.5258 275.951 61.7838C277.435 60.9923 278.499 59.9781 279.142 58.7414L287.601 61.2644C286.117 64.4304 283.891 66.8791 280.923 68.6106C278.004 70.342 274.64 71.2077 270.831 71.2077ZM277.88 48.427C277.831 47.0419 277.46 45.8051 276.767 44.7168C276.075 43.579 275.16 42.7133 274.022 42.1197C272.884 41.4766 271.623 41.155 270.237 41.155C269.001 41.155 267.838 41.4766 266.75 42.1197C265.662 42.7628 264.722 43.6285 263.93 44.7168C263.188 45.7557 262.693 46.9924 262.446 48.427H277.88ZM292.541 33.5862H301.149L301.817 38.3353C302.855 37.049 304.018 36.0102 305.304 35.2187C306.64 34.3777 308.099 33.8088 309.682 33.512C311.265 33.1657 312.922 33.1904 314.654 33.5862V42.4907C313.318 42.0455 311.908 41.9218 310.424 42.1197C308.99 42.3175 307.629 42.837 306.343 43.678C305.106 44.5189 304.067 45.7309 303.226 47.314C302.435 48.8475 302.039 50.8016 302.039 53.1761V70.6883H292.541V33.5862ZM324.44 58.593C324.737 59.8297 325.232 60.7697 325.924 61.4128C326.666 62.0559 327.483 62.5258 328.373 62.8226C329.313 63.07 330.253 63.1937 331.193 63.1937C332.924 63.1937 334.285 62.8721 335.274 62.229C336.263 61.5364 336.758 60.6707 336.758 59.6319C336.758 58.7414 336.412 58.0488 335.719 57.5541C335.027 57.01 334.136 56.6142 333.048 56.3669C331.96 56.0701 330.846 55.7732 329.709 55.4764C328.373 55.1301 326.938 54.7591 325.405 54.3634C323.921 53.9181 322.511 53.2998 321.175 52.5083C319.839 51.7167 318.726 50.7026 317.836 49.4659C316.946 48.1797 316.5 46.5719 316.5 44.6426C316.5 42.367 317.119 40.3635 318.355 38.6321C319.642 36.9006 321.398 35.5402 323.624 34.5508C325.899 33.5614 328.521 33.0667 331.49 33.0667C335.002 33.0667 337.97 33.8088 340.394 35.2929C342.818 36.777 344.574 38.9041 345.663 41.6744L337.277 44.049C337.03 43.3564 336.61 42.7875 336.016 42.3423C335.422 41.8971 334.705 41.5755 333.864 41.3776C333.073 41.1797 332.256 41.0808 331.415 41.0808C329.981 41.0808 328.793 41.3776 327.854 41.9713C326.914 42.5154 326.444 43.2822 326.444 44.2716C326.444 44.8652 326.617 45.3599 326.963 45.7557C327.309 46.102 327.779 46.3988 328.373 46.6461C329.016 46.8935 329.733 47.1161 330.525 47.314C331.366 47.5118 332.281 47.7345 333.27 47.9818C334.804 48.3776 336.338 48.8475 337.871 49.3917C339.454 49.8864 340.889 50.5295 342.175 51.321C343.511 52.1125 344.574 53.1761 345.366 54.5118C346.157 55.8474 346.602 57.5294 346.701 59.5577C346.701 61.7343 346.083 63.7131 344.846 65.494C343.61 67.2254 341.829 68.6106 339.504 69.6494C337.179 70.6883 334.359 71.2077 331.044 71.2077C327.186 71.2077 323.896 70.3915 321.175 68.759C318.504 67.1265 316.748 64.5788 315.907 61.1159L324.44 58.593Z" fill="#E580FF"/>
</svg>
